<svg viewBox="0 0 48 48" xml:space="preserve" xmlns="http://www.w3.org/2000/svg" enable-background="new 0 0 48 48"><path d="M25.152 22.21c0-.5-.009-1 .004-1.5.005-.228-.068-.313-.304-.311-1.228.008-2.456.008-3.685 0-.225-.002-.309.06-.308.3.006 4.525.006 9.05 0 13.575 0 .236.075.306.304.305 1.285-.009 2.57-.01 3.855 0 .234.002.3-.07.298-.303-.008-2.15-.01-4.299 0-6.448.002-.531.035-1.065.098-1.592.069-.575.253-1.119.657-1.558.52-.563 1.193-.69 1.921-.676 1.016.019 1.65.492 1.94 1.465.187.626.201 1.27.202 1.916v6.86c0 .32.011.331.325.331h3.758c.39 0 .392 0 .39-.385-.01-2.77-.018-5.541-.038-8.312a9.391 9.391 0 0 0-.352-2.506c-.356-1.253-1.027-2.275-2.258-2.808-1.288-.559-2.637-.66-4.001-.325-1.178.289-2.108.95-2.806 1.971zm-6.969 5.292c0-2.263-.004-4.525.006-6.787 0-.246-.065-.32-.31-.317-1.277.01-2.553.01-3.83 0-.239-.002-.32.065-.32.315.008 4.516.008 9.033 0 13.55 0 .247.077.318.318.316 1.277-.01 2.554-.01 3.83 0 .242.002.313-.066.312-.315-.01-2.254-.006-4.508-.006-6.762zm-4.79-11.505c0 1.41 1.155 2.592 2.567 2.578 1.458-.015 2.59-1.113 2.587-2.581-.003-1.494-1.154-2.582-2.59-2.573-1.53.009-2.562 1.233-2.565 2.576z" id="Icons" fill="none" stroke="#2196f3" stroke-width=".7" stroke-linecap="round" stroke-linejoin="round" stroke-miterlimit="10" class="stroke-303030"></path></svg>